<?xml version="1.0" encoding="UTF-8"?>
<svg width="24" height="24" viewBox="0 0 24 24" fill="none" xmlns="http://www.w3.org/2000/svg">
  <path d="M12 2C6.48 2 2 6.48 2 12C2 17.52 6.48 22 12 22C17.52 22 22 17.52 22 12C22 6.48 17.52 2 12 2Z" fill="#2496ED"/>
  <path d="M12 4C16.42 4 20 7.58 20 12C20 16.42 16.42 20 12 20C7.58 20 4 16.42 4 12C4 7.58 7.58 4 12 4Z" fill="#2496ED"/>
  <path d="M12 6C8.69 6 6 8.69 6 12C6 15.31 8.69 18 12 18C15.31 18 18 15.31 18 12C18 8.69 15.31 6 12 6Z" fill="white"/>
  <path d="M12 8C13.1 8 14 8.9 14 10C14 11.1 13.1 12 12 12C10.9 12 10 11.1 10 10C10 8.9 10.9 8 12 8Z" fill="#2496ED"/>
</svg> 