<?xml version="1.0" encoding="UTF-8"?>
<svg xmlns="http://www.w3.org/2000/svg" viewBox="0 0 448 512">
  <path fill="#02569b" d="M224 0C100.3 0 0 100.3 0 224s100.3 224 224 224 224-100.3 224-224S347.7 0 224 0zm0 64c88.4 0 160 71.6 160 160s-71.6 160-160 160S64 312.4 64 224s71.6-160 160-160zm0 32c-70.7 0-128 57.3-128 128s57.3 128 128 128 128-57.3 128-128-57.3-128-128-128zm0 32c53 0 96 43 96 96s-43 96-96 96-96-43-96-96 43-96 96-96z"/>
  <path fill="#027dfd" d="M224 96c-70.7 0-128 57.3-128 128s57.3 128 128 128 128-57.3 128-128-57.3-128-128-128zm0 32c53 0 96 43 96 96s-43 96-96 96-96-43-96-96 43-96 96-96z"/>
  <path fill="#02569b" d="M224 160c-35.3 0-64 28.7-64 64s28.7 64 64 64 64-28.7 64-64-28.7-64-64-64zm0 32c17.7 0 32 14.3 32 32s-14.3 32-32 32-32-14.3-32-32 14.3-32 32-32z"/>
</svg> 