<?xml version="1.0" encoding="UTF-8"?>
<svg xmlns="http://www.w3.org/2000/svg" viewBox="0 0 448 512">
  <path fill="#339933" d="M224 508c-6.7 0-13.5-1.8-19.4-5.2l-69.8-40.5c-6.9-4-11.2-11.3-11.2-19.4v-81c0-7.4 3.4-14.3 9.2-18.8l70.2-40.6c5.8-3.4 12.6-3.4 18.4 0l70.2 40.6c5.8 4.5 9.2 11.4 9.2 18.8v81c0 8.1-4.3 15.4-11.2 19.4l-69.8 40.5c-5.9 3.4-12.7 5.2-19.4 5.2zm-50.2-66.7l50.2 29.1 50.2-29.1v-58.2l-50.2-29.1-50.2 29.1v58.2z"/>
  <path fill="#339933" d="M224 0c-6.7 0-13.5 1.8-19.4 5.2L134.8 45.7c-6.9 4-11.2 11.3-11.2 19.4v81c0 7.4 3.4 14.3 9.2 18.8l70.2 40.6c5.8 3.4 12.6 3.4 18.4 0l70.2-40.6c5.8-4.5 9.2-11.4 9.2-18.8v-81c0-8.1-4.3-15.4-11.2-19.4L243.4 5.2C237.5 1.8 230.7 0 224 0zm50.2 146.3l-50.2 29.1-50.2-29.1v-58.2l50.2-29.1 50.2 29.1v58.2z"/>
  <path fill="#339933" d="M224 254c-6.7 0-13.5 1.8-19.4 5.2l-69.8 40.5c-6.9 4-11.2 11.3-11.2 19.4v81c0 7.4 3.4 14.3 9.2 18.8l70.2 40.6c5.8 3.4 12.6 3.4 18.4 0l70.2-40.6c5.8-4.5 9.2-11.4 9.2-18.8v-81c0-8.1-4.3-15.4-11.2-19.4l-69.8-40.5c-5.9-3.4-12.7-5.2-19.4-5.2zm50.2 146.3l-50.2 29.1-50.2-29.1v-58.2l50.2-29.1 50.2 29.1v58.2z"/>
</svg> 