<?xml version="1.0" encoding="UTF-8"?>
<svg width="24" height="24" viewBox="0 0 24 24" fill="none" xmlns="http://www.w3.org/2000/svg">
  <path d="M16.6 11.48c.97-.67 1.65-1.77 1.65-2.97 0-1.97-1.6-3.57-3.57-3.57s-3.57 1.6-3.57 3.57c0 1.2.68 2.3 1.65 2.97-1.97.67-3.57 2.27-3.57 4.24 0 1.97 1.6 3.57 3.57 3.57s3.57-1.6 3.57-3.57c0-1.97-1.6-3.57-3.57-3.57zm-3.57-2.97c0 .97.79 1.76 1.76 1.76s1.76-.79 1.76-1.76-.79-1.76-1.76-1.76-1.76.79-1.76 1.76zm3.57 8.73c-.97 0-1.76-.79-1.76-1.76s.79-1.76 1.76-1.76 1.76.79 1.76 1.76-.79 1.76-1.76 1.76z" fill="#764ABC"/>
</svg> 